<svg xmlns="http://www.w3.org/2000/svg" viewBox="0 0 1010 1250" width="1010" height="1250" font-family="Helvetica, Arial, sans-serif" xmlns:c2pa="http://c2pa.org/manifest"><metadata><c2pa:manifest>AAAWgmp1bWIAAAAeanVtZGMycGEAEQAQgAAAqgA4m3EDYzJwYQAAABZcanVtYgAAAEdqdW1kYzJtYQARABCAAACqADibcQN1cm46YzJwYTplZTUyMjBjNy02ODNiLTQyYzMtYTQxZi01NGRiNWU3MmJmZDYAAAADl2p1bWIAAAApanVtZGMyYXMAEQAQgAAAqgA4m3EDYzJwYS5hc3NlcnRpb25zAAAAALxqdW1iAAAARGp1bWRjYm9yABEAEIAAAKoAOJtxE2MycGEuaW5ncmVkaWVudC52MwAAAAAYYzJzaM7jsdk7ZxgAH2hiHvmEk88AAABwY2JvcqNpZGM6Zm9ybWF0bWltYWdlL3N2Zyt4bWxqaW5zdGFuY2VJRHgseG1wOmlpZDplZjNlZGM5OC1lMmI5LTRhMjItYWNmMS03ZDdmMTUzNjcxNzJscmVsYXRpb25zaGlwaHBhcmVudE9mAAAB4mp1bWIAAABBanVtZGNib3IAEQAQgAAAqgA4m3ETYzJwYS5hY3Rpb25zLnYyAAAAABhjMnNoqku5I96LlETk8axzFu7wbgAAAZljYm9yomdhY3Rpb25zgqJmYWN0aW9ua2MycGEub3BlbmVkanBhcmFtZXRlcnOha2luZ3JlZGllbnRzgaJjdXJseC1zZWxmI2p1bWJmPWMycGEuYXNzZXJ0aW9ucy9jMnBhLmluZ3JlZGllbnQudjNkaGFzaFggCEfksAkDxaUf8uewTf+cj5QSH8e0XnU9grnpS+9vP06kZmFjdGlvbngdY29tLmFudGhyb3BpYy5jbGF1ZGUucHJvdmlkZWRqcGFyYW1ldGVyc6F4H2NvbS5hbnRocm9waWMub3JpZ2luLWNvbmZpZGVuY2VndW5rbm93bmtkZXNjcmlwdGlvbnhmQ2xhdWRlIHByb3ZpZGVkIHRoaXMgZmlsZSBhdCB0aGUgcmVxdWVzdCBvZiBhIHVzZXIgYW5kIG1heSBoYXZlIGNyZWF0ZWQgb3IgbW9kaWZpZWQgdGhlIGZpbGUgY29udGVudHMubXNvZnR3YXJlQWdlbnShZG5hbWVmQ2xhdWRlcmFsbEFjdGlvbnNJbmNsdWRlZPUAAADIanVtYgAAAEBqdW1kY2JvcgARABCAAACqADibcRNjMnBhLmhhc2guZGF0YQAAAAAYYzJzaKcAwr3G1NJh2KsZmGRT5iEAAACAY2JvcqVjYWxnZnNoYTI1NmNwYWRNAAAAAAAAAAAAAAAAAGRoYXNoWCCoeKUG2SAS2dKvfLEVnKNbCjiVXyqiYiMkGguP1gWDt2RuYW1lbmp1bWJmIG1hbmlmZXN0amV4Y2x1c2lvbnOBomVzdGFydBjFZmxlbmd0aBkeBAAAAj5qdW1iAAAAJ2p1bWRjMmNsABEAEIAAAKoAOJtxA2MycGEuY2xhaW0udjIAAAACD2Nib3KlY2FsZ2ZzaGEyNTZpc2lnbmF0dXJleE1zZWxmI2p1bWJmPS9jMnBhL3VybjpjMnBhOmVlNTIyMGM3LTY4M2ItNDJjMy1hNDFmLTU0ZGI1ZTcyYmZkNi9jMnBhLnNpZ25hdHVyZWppbnN0YW5jZUlEeCx4bXA6aWlkOmM3MDRjYzZkLWE5OTgtNGNkOC1hMThkLWQ1NGI1MTRhMDQzN3JjcmVhdGVkX2Fzc2VydGlvbnODomN1cmx4LXNlbGYjanVtYmY9YzJwYS5hc3NlcnRpb25zL2MycGEuaW5ncmVkaWVudC52M2RoYXNoWCAIR+SwCQPFpR/y57BN/5yPlBIfx7RedT2CuelL728/TqJjdXJseCpzZWxmI2p1bWJmPWMycGEuYXNzZXJ0aW9ucy9jMnBhLmFjdGlvbnMudjJkaGFzaFggXLvqb5ZEG43ppRpvnGqnMpRIEjjbUetkuDzZh2A3An+iY3VybHgpc2VsZiNqdW1iZj1jMnBhLmFzc2VydGlvbnMvYzJwYS5oYXNoLmRhdGFkaGFzaFggawUtyivzOAhhzVudoswsKUAqyjbVf0gx4e/hah75yJ50Y2xhaW1fZ2VuZXJhdG9yX2luZm+jZG5hbWVvQW50aHJvcGljIEZpbGVzZ3ZlcnNpb25lMS4wLjBrc3BlY1ZlcnNpb25lMi40LjAAABA4anVtYgAAAChqdW1kYzJjcwARABCAAACqADibcQNjMnBhLnNpZ25hdHVyZQAAABAIY2JvctKEWQISogEmGCFZAgowggIGMIIBjaADAgECAhRA5aAK7sI50L64g/oGQgU9Z1UTADAKBggqhkjOPQQDAzBJMRcwFQYDVQQKEw5BbnRocm9waWMsIFBCQzEuMCwGA1UEAxMlQW50aHJvcGljIENvbnRlbnQgQ3JlZGVudGlhbHMgUm9vdCBDQTAeFw0yNjA4MDcxODQzNTZaFw0yODA4MDYxOTQzNTZaMEQxFzAVBgNVBAoTDkFudGhyb3BpYywgUEJDMSkwJwYDVQQDEyBBbnRocm9waWMgQ2xhdWRlIENvbnRlbnQgU2lnbmluZzBZMBMGByqGSM49AgEGCCqGSM49AwEHA0IABJh6CmvLUBgFFNU0vUKlOVtE6djd17L5SuwX0LemFisBM3dkd/3cyjxFA3Qo5S46fX0/ihY0VZ7mfb9KF703t5OjWDBWMA4GA1UdDwEB/wQEAwIHgDAVBgNVHSUEDjAMBgorBgEEAYPoXgIBMAwGA1UdEwEB/wQCMAAwHwYDVR0jBBgwFoAUzlHiBIFOZFsj+OPEz5o+nMHXXMIwCgYIKoZIzj0EAwMDZwAwZAIwMXMdFJ4BetLLVY7ORuE9noqbbAZOZn/aArXyTwFAZfKrPzxF2vPoJNf1+UCdg1XGAjBwX1zd9WGqYkqmL5SFqw1QySjr1zJfpJM9+1rdDwSPLMOPOjKuiXjoU/pUUeG9RwmhY3BhZFkNngAAAAAAAAAAAAAAAAAAAAAAAAAAAAAAAAAAAAAAAAAAAAAAAAAAAAAAAAAAAAAAAAAAAAAAAAAAAAAAAAAAAAAAAAAAAAAAAAAAAAAAAAAAAAAAAAAAAAAAAAAAAAAAAAAAAAAAAAAAAAAAAAAAAAAAAAAAAAAAAAAAAAAAAAAAAAAAAAAAAAAAAAAAAAAAAAAAAAAAAAAAAAAAAAAAAAAAAAAAAAAAAAAAAAAAAAAAAAAAAAAAAAAAAAAAAAAAAAAAAAAAAAAAAAAAAAAAAAAAAAAAAAAAAAAAAAAAAAAAAAAAAAAAAAAAAAAAAAAAAAAAAAAAAAAAAAAAAAAAAAAAAAAAAAAAAAAAAAAAAAAAAAAAAAAAAAAAAAAAAAAAAAAAAAAAAAAAAAAAAAAAAAAAAAAAAAAAAAAAAAAAAAAAAAAAAAAAAAAAAAAAAAAAAAAAAAAAAAAAAAAAAAAAAAAAAAAAAAAAAAAAAAAAAAAAAAAAAAAAAAAAAAAAAAAAAAAAAAAAAAAAAAAAAAAAAAAAAAAAAAAAAAAAAAAAAAAAAAAAAAAAAAAAAAAAAAAAAAAAAAAAAAAAAAAAAAAAAAAAAAAAAAAAAAAAAAAAAAAAAAAAAAAAAAAAAAAAAAAAAAAAAAAAAAAAAAAAAAAAAAAAAAAAAAAAAAAAAAAAAAAAAAAAAAAAAAAAAAAAAAAAAAAAAAAAAAAAAAAAAAAAAAAAAAAAAAAAAAAAAAAAAAAAAAAAAAAAAAAAAAAAAAAAAAAAAAAAAAAAAAAAAAAAAAAAAAAAAAAAAAAAAAAAAAAAAAAAAAAAAAAAAAAAAAAAAAAAAAAAAAAAAAAAAAAAAAAAAAAAAAAAAAAAAAAAAAAAAAAAAAAAAAAAAAAAAAAAAAAAAAAAAAAAAAAAAAAAAAAAAAAAAAAAAAAAAAAAAAAAAAAAAAAAAAAAAAAAAAAAAAAAAAAAAAAAAAAAAAAAAAAAAAAAAAAAAAAAAAAAAAAAAAAAAAAAAAAAAAAAAAAAAAAAAAAAAAAAAAAAAAAAAAAAAAAAAAAAAAAAAAAAAAAAAAAAAAAAAAAAAAAAAAAAAAAAAAAAAAAAAAAAAAAAAAAAAAAAAAAAAAAAAAAAAAAAAAAAAAAAAAAAAAAAAAAAAAAAAAAAAAAAAAAAAAAAAAAAAAAAAAAAAAAAAAAAAAAAAAAAAAAAAAAAAAAAAAAAAAAAAAAAAAAAAAAAAAAAAAAAAAAAAAAAAAAAAAAAAAAAAAAAAAAAAAAAAAAAAAAAAAAAAAAAAAAAAAAAAAAAAAAAAAAAAAAAAAAAAAAAAAAAAAAAAAAAAAAAAAAAAAAAAAAAAAAAAAAAAAAAAAAAAAAAAAAAAAAAAAAAAAAAAAAAAAAAAAAAAAAAAAAAAAAAAAAAAAAAAAAAAAAAAAAAAAAAAAAAAAAAAAAAAAAAAAAAAAAAAAAAAAAAAAAAAAAAAAAAAAAAAAAAAAAAAAAAAAAAAAAAAAAAAAAAAAAAAAAAAAAAAAAAAAAAAAAAAAAAAAAAAAAAAAAAAAAAAAAAAAAAAAAAAAAAAAAAAAAAAAAAAAAAAAAAAAAAAAAAAAAAAAAAAAAAAAAAAAAAAAAAAAAAAAAAAAAAAAAAAAAAAAAAAAAAAAAAAAAAAAAAAAAAAAAAAAAAAAAAAAAAAAAAAAAAAAAAAAAAAAAAAAAAAAAAAAAAAAAAAAAAAAAAAAAAAAAAAAAAAAAAAAAAAAAAAAAAAAAAAAAAAAAAAAAAAAAAAAAAAAAAAAAAAAAAAAAAAAAAAAAAAAAAAAAAAAAAAAAAAAAAAAAAAAAAAAAAAAAAAAAAAAAAAAAAAAAAAAAAAAAAAAAAAAAAAAAAAAAAAAAAAAAAAAAAAAAAAAAAAAAAAAAAAAAAAAAAAAAAAAAAAAAAAAAAAAAAAAAAAAAAAAAAAAAAAAAAAAAAAAAAAAAAAAAAAAAAAAAAAAAAAAAAAAAAAAAAAAAAAAAAAAAAAAAAAAAAAAAAAAAAAAAAAAAAAAAAAAAAAAAAAAAAAAAAAAAAAAAAAAAAAAAAAAAAAAAAAAAAAAAAAAAAAAAAAAAAAAAAAAAAAAAAAAAAAAAAAAAAAAAAAAAAAAAAAAAAAAAAAAAAAAAAAAAAAAAAAAAAAAAAAAAAAAAAAAAAAAAAAAAAAAAAAAAAAAAAAAAAAAAAAAAAAAAAAAAAAAAAAAAAAAAAAAAAAAAAAAAAAAAAAAAAAAAAAAAAAAAAAAAAAAAAAAAAAAAAAAAAAAAAAAAAAAAAAAAAAAAAAAAAAAAAAAAAAAAAAAAAAAAAAAAAAAAAAAAAAAAAAAAAAAAAAAAAAAAAAAAAAAAAAAAAAAAAAAAAAAAAAAAAAAAAAAAAAAAAAAAAAAAAAAAAAAAAAAAAAAAAAAAAAAAAAAAAAAAAAAAAAAAAAAAAAAAAAAAAAAAAAAAAAAAAAAAAAAAAAAAAAAAAAAAAAAAAAAAAAAAAAAAAAAAAAAAAAAAAAAAAAAAAAAAAAAAAAAAAAAAAAAAAAAAAAAAAAAAAAAAAAAAAAAAAAAAAAAAAAAAAAAAAAAAAAAAAAAAAAAAAAAAAAAAAAAAAAAAAAAAAAAAAAAAAAAAAAAAAAAAAAAAAAAAAAAAAAAAAAAAAAAAAAAAAAAAAAAAAAAAAAAAAAAAAAAAAAAAAAAAAAAAAAAAAAAAAAAAAAAAAAAAAAAAAAAAAAAAAAAAAAAAAAAAAAAAAAAAAAAAAAAAAAAAAAAAAAAAAAAAAAAAAAAAAAAAAAAAAAAAAAAAAAAAAAAAAAAAAAAAAAAAAAAAAAAAAAAAAAAAAAAAAAAAAAAAAAAAAAAAAAAAAAAAAAAAAAAAAAAAAAAAAAAAAAAAAAAAAAAAAAAAAAAAAAAAAAAAAAAAAAAAAAAAAAAAAAAAAAAAAAAAAAAAAAAAAAAAAAAAAAAAAAAAAAAAAAAAAAAAAAAAAAAAAAAAAAAAAAAAAAAAAAAAAAAAAAAAAAAAAAAAAAAAAAAAAAAAAAAAAAAAAAAAAAAAAAAAAAAAAAAAAAAAAAAAAAAAAAAAAAAAAAAAAAAAAAAAAAAAAAAAAAAAAAAAAAAAAAAAAAAAAAAAAAAAAAAAAAAAAAAAAAAAAAAAAAAAAAAAAAAAAAAAAAAAAAAAAAAAAAAAAAAAAAAAAAAAAAAAAAAAAAAAAAAAAAAAAAAAAAAAAAAAAAAAAAAAAAAAAAAAAAAAAAAAAAAAAAAAAAAAAAAAAAAAAAAAAAAAAAAAAAAAAAAAAAAAAAAAAAAAAAAAAAAAAAAAAAAAAAAAAAAAAAAAAAAAAAAAAAAAAAAAAAAAAAAAAAAAAAAAAAAAAAAAAAAAAAAAAAAAAAAAAAAAAAAAAAAAAAAAAAAAAAAAAAAAAAAAAAAAAAAAAAAAAAAAAAAAAAAAAAAAAAAAAAAAAAAAAAAAAAAAAAAAAAAAAAAAAAAAAAAAAAAAAAAAAAAAAAAAAAAAAAAAAAAAAAAAAAAAAAAAAAAAAAAAAAAAAAAAAAAAAAAAAAAAAAAAAAAAAAAAAAAAAAAAAAAAAAAAAAAAAAAAAAAAAAAAAAAAAAAAAAAAAAAAAAAAAAAAAAAAAAAAAAAAAAAAAAAAAAAAAAAAAAAAAAAAAAAAAAAAAAAAAAAAAAAAAAAAAAAAAAAAAAAAAAAAAAAAAAAAAAAAAAAAAAAAAAAAAAAAAAAAAAAAAAAAAAAAAAAAAAAAAAAAAAAAAAAAAAAAAAAAAAAAAAAAAAAAAAAAAAAAAAAAAAAAAAAAAAAAAAAAAAAAAAAAAAAAAAAAAAAAAAAAAAAAAAAAAAAAAAAAAAAAAAAAAAAAAAAAAAAAAAAAAAAAAAAAAAAAAAAAAAAAAAAAAAAAAAAAAAAAAAAAAAAAAAAAAAAAAAAAAAAAAAAAAAAAAAAAAAAAAAAAAAAAAAAAAAAAAAAAAAAAAAAAAAAAAAAAAAAAAAAAAAAAAAAAAAAAAAAAAAAAAAAAAAAAAAAAAAAAAAAAAAAAAAAAAAAAAAAAAAAAAAAAAAAAAAAAAAAAAAAAAAAAAAAAAAAAAAAAAAAAAAAAAAAAAAAAAAAAAAAAAAAAAAAAAAAAAAAAAAAAAAAAAAAAAAAAAAAAAAAAAAAAAAAAAAAAAAAAAAAAAAAAAAAAAAAAAAAAAAAAAAAAAAAAAAAAAAAAAAAAAAAAAAAAAAAAAAAAAAAAAAAAAAAAAAAAAAAAAAAAAAAAAAAAAAAAAAAAAAAAAAAAAAAAAAAAAAAAAAAAAAAAAAAAAAAAAAAAAAAAAAAAAAAAAAAAAAAAAAAAAAAAAAAAAAAAAAAAAAAAAAAAAAAAAAAAAAAAAAAAAAAAAAAAAAAAAAAAAAAAAAAAAAAAAAAAAAAAAAAAAAAAAAAAAAAAAAAAAAAAAAAAAAAAAAAAAAAAAAAAAAAAAAAAAAAAAAAAAAAAAAAAAAAAAAAAAAAAAAAAAAAAAAAAAAAAAAAAAAAAAAAAAAAAAAAAAAAAAAAAAAAAAAAAAAAAAAAAAAAAAAAAAAAAAAAAAAAAAAAAAAAAAAAAAAAAAAAAAAAAAAAAAAAAAAAAAAAAAAAAAAAAAAAAAAAAAAAAAAAAAAAAAAAAAAAAAAAAAAPZYQO3GDRC5g8HwKL4DhUsB0zlmF7ayIt/UIq6B/BRWaaZ6sd3owKMUV4ZmDc3rzfLzk4p/onbFDX7SOK11xkWx7bI=</c2pa:manifest></metadata>
<rect width="1010" height="1250" fill="#ffffff"/>
<text x="505" y="30" text-anchor="middle" font-size="18" font-weight="700" fill="#222">Roof Plan — Mono-pitch facing South · parapet "box" look (Option 2) · 8 × 600 W</text>
<g transform="translate(60 75)"><circle r="30" fill="#fff" stroke="#555" stroke-width="1.5"/><polygon points="-9.1,-26.5 8.4,3.0 -4.8,7.6" fill="#bbbbbb"/><polygon points="9.1,26.5 -8.4,-3.0 4.8,-7.6" fill="#c0392b"/><text x="13.7" y="43.7" text-anchor="middle" font-size="12" font-weight="700" fill="#c0392b">N</text><text x="-39.7" y="17.7" text-anchor="middle" font-size="12" font-weight="700" fill="#333">E</text><text x="-13.7" y="-35.7" text-anchor="middle" font-size="12" font-weight="700" fill="#333">S</text><text x="39.7" y="-9.7" text-anchor="middle" font-size="12" font-weight="700" fill="#333">W</text><text x="0" y="60" text-anchor="middle" font-size="9" fill="#555">front faces 199° (SSW)</text></g>
<text x="450" y="80" text-anchor="middle" font-size="12" fill="#6b8f60">↑ front yard · sun path mostly to the SOUTH</text>

<!-- Road + fence context -->
<rect x="733" y="60" width="220" height="760" fill="#e6e6e6"/>
<text x="843" y="440" text-anchor="middle" font-size="15" font-weight="700" fill="#777" transform="rotate(-90 843 440)">ROAD</text>
<polyline points="170,110 110,590 110,800" fill="none" stroke="#8b5a2b" stroke-width="2.5" stroke-dasharray="14 4 3 4"/>
<text x="128" y="360" text-anchor="middle" font-size="9" font-weight="700" fill="#8b5a2b" transform="rotate(-83 128 360)">FENCE / LOT LINE</text>

<defs><pattern id="hatch" width="10" height="10" patternUnits="userSpaceOnUse" patternTransform="rotate(45)"><line x1="0" y1="0" x2="0" y2="10" stroke="#b08a50" stroke-width="1.5"/></pattern></defs>
<rect x="172" y="112" width="159" height="252" fill="#f3ead9"/><rect x="172" y="112" width="159" height="252" fill="url(#hatch)" stroke="#8b5a2b" stroke-width="2" stroke-dasharray="8 4"/>
<rect x="185" y="200" width="134" height="58" fill="#fff" opacity="0.92"/>
<text x="252" y="217" text-anchor="middle" font-size="10" font-weight="700" fill="#6b4a1f">LOWER ENTRY CANOPY</text>
<text x="252" y="231" text-anchor="middle" font-size="8" fill="#6b4a1f">separate, at 2F floor level</text>
<text x="252" y="243" text-anchor="middle" font-size="8" fill="#6b4a1f">polycarbonate on steel frame</text>
<text x="252" y="254" text-anchor="middle" font-size="8" fill="#6b4a1f">bolted to wall + strapped</text>
<!-- Roof plane -->
<polygon points="333,110 730,110 730,800 110,800 110,590 170,590 170,370 333,370" fill="#c9ccd1" stroke="#333" stroke-width="3"/>
<g stroke="#b3b7bd" stroke-width="1"><line x1="190" y1="372" x2="190" y2="798"/><line x1="210" y1="372" x2="210" y2="798"/><line x1="230" y1="372" x2="230" y2="798"/><line x1="250" y1="372" x2="250" y2="798"/><line x1="270" y1="372" x2="270" y2="798"/><line x1="290" y1="372" x2="290" y2="798"/><line x1="310" y1="372" x2="310" y2="798"/><line x1="330" y1="372" x2="330" y2="798"/><line x1="350" y1="112" x2="350" y2="798"/><line x1="370" y1="112" x2="370" y2="798"/><line x1="390" y1="112" x2="390" y2="798"/><line x1="410" y1="112" x2="410" y2="798"/><line x1="430" y1="112" x2="430" y2="798"/><line x1="450" y1="112" x2="450" y2="798"/><line x1="470" y1="112" x2="470" y2="798"/><line x1="490" y1="112" x2="490" y2="798"/><line x1="510" y1="112" x2="510" y2="798"/><line x1="530" y1="112" x2="530" y2="798"/><line x1="550" y1="112" x2="550" y2="798"/><line x1="570" y1="112" x2="570" y2="798"/><line x1="590" y1="112" x2="590" y2="798"/><line x1="610" y1="112" x2="610" y2="798"/><line x1="630" y1="112" x2="630" y2="798"/><line x1="650" y1="112" x2="650" y2="798"/><line x1="670" y1="112" x2="670" y2="798"/><line x1="690" y1="112" x2="690" y2="798"/><line x1="710" y1="112" x2="710" y2="798"/></g>
<!-- ground-floor walls ghost -->
<g fill="none" stroke="#7d8591" stroke-width="1" stroke-dasharray="4 4">
  <rect x="333" y="110" width="397" height="260"/><rect x="170" y="370" width="380" height="220"/><rect x="110" y="590" width="120" height="210"/><rect x="230" y="710" width="320" height="90"/>
</g>

<!-- Gutter south (low edge) + high edge north -->
<rect x="333" y="100" width="397" height="10" fill="#1b5e8a"/><rect x="170" y="370" width="163" height="8" fill="#1b5e8a"/>
<text x="450" y="96" text-anchor="middle" font-size="10" font-weight="700" fill="#1b5e8a">LOW EDGE · water drains through SCUPPERS in the parapet → outside gutters with leaf guard → yard</text>
<rect x="110" y="800" width="620" height="8" fill="#6b4a1f"/>
<text x="420" y="826" text-anchor="middle" font-size="10" font-weight="700" fill="#6b4a1f">HIGH EDGE (north) · ~1.2 m higher · vented gap / high louvers above stairs</text>

<!-- Slope arrows -->
<g stroke="#b03a2e" stroke-width="2.5" fill="#b03a2e">
  <line x1="705" y1="760" x2="705" y2="160"/><polygon points="697,170 713,170 705,150"/>
  <line x1="195" y1="580" x2="195" y2="400"/><polygon points="187,410 203,410 195,390"/>
</g>
<text x="720" y="470" font-size="10" font-weight="700" fill="#b03a2e" transform="rotate(-90 720 470)">slope down to south · 10°</text>

<!-- Parapet (Option 2): low front parapet, sides follow slope +50 cm -->
<polygon points="333,110 730,110 730,800 110,800 110,590 170,590 170,370 333,370" fill="none" stroke="#b9ae9c" stroke-width="15" stroke-linejoin="miter"/>
<polygon points="333,110 730,110 730,800 110,800 110,590 170,590 170,370 333,370" fill="none" stroke="#555" stroke-width="1.5"/>
<g fill="#1b5e8a"><rect x="385" y="102" width="24" height="16"/><rect x="660" y="102" width="24" height="16"/><rect x="240" y="362" width="24" height="16"/></g>
<text x="535" y="130" text-anchor="middle" font-size="9" font-weight="700" fill="#6b5a3f">FRONT PARAPET 55 cm (flat top) · scuppers → outside gutter/downspouts</text>
<text x="745" y="600" font-size="9" font-weight="700" fill="#6b5a3f" transform="rotate(-90 745 600)">side parapet follows slope +50 cm</text>
<!-- Solar panels -->
<rect x="422.0" y="190.0" width="227.8" height="111.7" fill="#1f3b63" stroke="#9fb6d6" stroke-width="1.5"/><line x1="460.0" y1="190.0" x2="460.0" y2="301.7" stroke="#3b5f8f" stroke-width="0.8"/><line x1="497.9" y1="190.0" x2="497.9" y2="301.7" stroke="#3b5f8f" stroke-width="0.8"/><line x1="535.9" y1="190.0" x2="535.9" y2="301.7" stroke="#3b5f8f" stroke-width="0.8"/><line x1="573.9" y1="190.0" x2="573.9" y2="301.7" stroke="#3b5f8f" stroke-width="0.8"/><line x1="611.8" y1="190.0" x2="611.8" y2="301.7" stroke="#3b5f8f" stroke-width="0.8"/><text x="535.9" y="249.8" text-anchor="middle" font-size="11" font-weight="700" fill="#cfe0f5">1</text><rect x="422.0" y="303.7" width="227.8" height="111.7" fill="#1f3b63" stroke="#9fb6d6" stroke-width="1.5"/><line x1="460.0" y1="303.7" x2="460.0" y2="415.4" stroke="#3b5f8f" stroke-width="0.8"/><line x1="497.9" y1="303.7" x2="497.9" y2="415.4" stroke="#3b5f8f" stroke-width="0.8"/><line x1="535.9" y1="303.7" x2="535.9" y2="415.4" stroke="#3b5f8f" stroke-width="0.8"/><line x1="573.9" y1="303.7" x2="573.9" y2="415.4" stroke="#3b5f8f" stroke-width="0.8"/><line x1="611.8" y1="303.7" x2="611.8" y2="415.4" stroke="#3b5f8f" stroke-width="0.8"/><text x="535.9" y="363.5" text-anchor="middle" font-size="11" font-weight="700" fill="#cfe0f5">2</text><rect x="232.0" y="418.0" width="227.8" height="111.7" fill="#1f3b63" stroke="#9fb6d6" stroke-width="1.5"/><line x1="270.0" y1="418.0" x2="270.0" y2="529.7" stroke="#3b5f8f" stroke-width="0.8"/><line x1="307.9" y1="418.0" x2="307.9" y2="529.7" stroke="#3b5f8f" stroke-width="0.8"/><line x1="345.9" y1="418.0" x2="345.9" y2="529.7" stroke="#3b5f8f" stroke-width="0.8"/><line x1="383.9" y1="418.0" x2="383.9" y2="529.7" stroke="#3b5f8f" stroke-width="0.8"/><line x1="421.8" y1="418.0" x2="421.8" y2="529.7" stroke="#3b5f8f" stroke-width="0.8"/><text x="345.9" y="477.8" text-anchor="middle" font-size="11" font-weight="700" fill="#cfe0f5">3</text><rect x="462.0" y="418.0" width="227.8" height="111.7" fill="#1f3b63" stroke="#9fb6d6" stroke-width="1.5"/><line x1="500.0" y1="418.0" x2="500.0" y2="529.7" stroke="#3b5f8f" stroke-width="0.8"/><line x1="537.9" y1="418.0" x2="537.9" y2="529.7" stroke="#3b5f8f" stroke-width="0.8"/><line x1="575.9" y1="418.0" x2="575.9" y2="529.7" stroke="#3b5f8f" stroke-width="0.8"/><line x1="613.9" y1="418.0" x2="613.9" y2="529.7" stroke="#3b5f8f" stroke-width="0.8"/><line x1="651.8" y1="418.0" x2="651.8" y2="529.7" stroke="#3b5f8f" stroke-width="0.8"/><text x="575.9" y="477.8" text-anchor="middle" font-size="11" font-weight="700" fill="#cfe0f5">4</text><rect x="232.0" y="531.7" width="227.8" height="111.7" fill="#1f3b63" stroke="#9fb6d6" stroke-width="1.5"/><line x1="270.0" y1="531.7" x2="270.0" y2="643.4" stroke="#3b5f8f" stroke-width="0.8"/><line x1="307.9" y1="531.7" x2="307.9" y2="643.4" stroke="#3b5f8f" stroke-width="0.8"/><line x1="345.9" y1="531.7" x2="345.9" y2="643.4" stroke="#3b5f8f" stroke-width="0.8"/><line x1="383.9" y1="531.7" x2="383.9" y2="643.4" stroke="#3b5f8f" stroke-width="0.8"/><line x1="421.8" y1="531.7" x2="421.8" y2="643.4" stroke="#3b5f8f" stroke-width="0.8"/><text x="345.9" y="591.5" text-anchor="middle" font-size="11" font-weight="700" fill="#cfe0f5">5</text><rect x="462.0" y="531.7" width="227.8" height="111.7" fill="#1f3b63" stroke="#9fb6d6" stroke-width="1.5"/><line x1="500.0" y1="531.7" x2="500.0" y2="643.4" stroke="#3b5f8f" stroke-width="0.8"/><line x1="537.9" y1="531.7" x2="537.9" y2="643.4" stroke="#3b5f8f" stroke-width="0.8"/><line x1="575.9" y1="531.7" x2="575.9" y2="643.4" stroke="#3b5f8f" stroke-width="0.8"/><line x1="613.9" y1="531.7" x2="613.9" y2="643.4" stroke="#3b5f8f" stroke-width="0.8"/><line x1="651.8" y1="531.7" x2="651.8" y2="643.4" stroke="#3b5f8f" stroke-width="0.8"/><text x="575.9" y="591.5" text-anchor="middle" font-size="11" font-weight="700" fill="#cfe0f5">6</text><rect x="232.0" y="645.4" width="227.8" height="111.7" fill="#1f3b63" stroke="#9fb6d6" stroke-width="1.5"/><line x1="270.0" y1="645.4" x2="270.0" y2="757.0" stroke="#3b5f8f" stroke-width="0.8"/><line x1="307.9" y1="645.4" x2="307.9" y2="757.0" stroke="#3b5f8f" stroke-width="0.8"/><line x1="345.9" y1="645.4" x2="345.9" y2="757.0" stroke="#3b5f8f" stroke-width="0.8"/><line x1="383.9" y1="645.4" x2="383.9" y2="757.0" stroke="#3b5f8f" stroke-width="0.8"/><line x1="421.8" y1="645.4" x2="421.8" y2="757.0" stroke="#3b5f8f" stroke-width="0.8"/><text x="345.9" y="705.2" text-anchor="middle" font-size="11" font-weight="700" fill="#cfe0f5">7</text><rect x="462.0" y="645.4" width="227.8" height="111.7" fill="#1f3b63" stroke="#9fb6d6" stroke-width="1.5"/><line x1="500.0" y1="645.4" x2="500.0" y2="757.0" stroke="#3b5f8f" stroke-width="0.8"/><line x1="537.9" y1="645.4" x2="537.9" y2="757.0" stroke="#3b5f8f" stroke-width="0.8"/><line x1="575.9" y1="645.4" x2="575.9" y2="757.0" stroke="#3b5f8f" stroke-width="0.8"/><line x1="613.9" y1="645.4" x2="613.9" y2="757.0" stroke="#3b5f8f" stroke-width="0.8"/><line x1="651.8" y1="645.4" x2="651.8" y2="757.0" stroke="#3b5f8f" stroke-width="0.8"/><text x="575.9" y="705.2" text-anchor="middle" font-size="11" font-weight="700" fill="#cfe0f5">8</text><text x="461" y="772" text-anchor="middle" font-size="10" font-weight="700" fill="#1f3b63">8 panels · set back ~80 cm from front parapet</text>
<!-- Water tank -->
<circle cx="170" cy="700" r="52" fill="#2e86c1" fill-opacity="0.25" stroke="#2e86c1" stroke-width="2"/>
<text x="170" y="696" text-anchor="middle" font-size="9" font-weight="700" fill="#1b5e8a">WATER TANK</text>
<text x="170" y="708" text-anchor="middle" font-size="8" fill="#1b5e8a">~1000 L, over CR</text>
<text x="170" y="719" text-anchor="middle" font-size="8" fill="#1b5e8a">under high end</text>

<!-- Dimensions -->
<g stroke="#1f5fbf" stroke-width="1.2" fill="#1f5fbf" font-size="12" font-weight="600">
  <line x1="170" y1="852" x2="730" y2="852"/><line x1="170" y1="846" x2="170" y2="858"/><line x1="730" y1="846" x2="730" y2="858"/>
  <text x="450" y="870" text-anchor="middle" stroke="none">397 at front (Room C) · 560 at Room B · 620 at back · parapet all around</text>
  <line x1="972" y1="110" x2="972" y2="800"/><line x1="966" y1="110" x2="978" y2="110"/><line x1="966" y1="800" x2="978" y2="800"/>
  <text x="982" y="460" stroke="none">690</text>
</g>

<!-- SECTION -->
<text x="505" y="920" text-anchor="middle" font-size="15" font-weight="700" fill="#222">Section (looking west) — not to scale vertically</text>
<g transform="translate(180 960)">
  <line x1="0" y1="230" x2="690" y2="230" stroke="#444" stroke-width="2"/>
  <rect x="0" y="100" width="690" height="130" fill="#f3f3f3" stroke="#444" stroke-width="2"/>
  <line x1="0" y1="165" x2="690" y2="165" stroke="#444" stroke-width="1.5"/>
  <text x="345" y="200" text-anchor="middle" font-size="11" fill="#555">GROUND FLOOR</text>
  <text x="345" y="140" text-anchor="middle" font-size="11" fill="#555">2ND FLOOR</text>
  <polygon points="0,98 690,42 690,54 0,110" fill="#8a8f96"/>
  <line x1="690" y1="46" x2="690" y2="100" stroke="#444" stroke-width="2"/><rect x="-6" y="72" width="10" height="30" fill="#b9ae9c" stroke="#555"/><rect x="686" y="14" width="10" height="34" fill="#b9ae9c" stroke="#555"/><text x="-8" y="66" font-size="9" fill="#6b5a3f">front parapet</text>
  <line x1="0" y1="100" x2="0" y2="104" stroke="#444" stroke-width="2"/>
  <g fill="#1f3b63"><polygon points="40,95.0 150,86.2 150,78.2 40,87.0"/><polygon points="158,85.6 268,76.8 268,68.8 158,77.6"/><polygon points="276,76.1 386,67.3 386,59.3 276,68.1"/><polygon points="394,66.7 504,57.9 504,49.9 394,58.7"/><polygon points="512,57.2 622,48.4 622,40.4 512,49.2"/></g>
  <text x="700" y="35" font-size="10" fill="#6b4a1f">high (north)</text>
  <text x="-60" y="95" font-size="10" fill="#1b5e8a">gutter</text>
  <text x="-40" y="-5" font-size="22" fill="#e0a800">☀</text>
  <text x="-12" y="-8" font-size="10" fill="#8a6d00">sun from south</text>
  <rect x="560" y="70" width="60" height="29" fill="#2e86c1" fill-opacity="0.35" stroke="#2e86c1"/>
  <text x="590" y="88" text-anchor="middle" font-size="8" fill="#1b5e8a">tank</text>
  <g stroke="#3a8fd6" stroke-width="2"><line x1="640" y1="60" x2="640" y2="95"/><line x1="660" y1="58" x2="660" y2="95"/></g>
  <text x="650" y="112" text-anchor="middle" font-size="8" fill="#1f6fb0">high vents</text>
  <text x="345" y="258" text-anchor="middle" font-size="10" fill="#555">SOUTH (front / yard)  ←——————————————→  NORTH (back / stairs)</text>
</g>
</svg>